<svg preserveAspectRatio="none" xmlns="http://www.w3.org/2000/svg" viewBox="0 0 31.86 98.3"><title>andres</title><path d="M0,2.53A2.22,2.22,0,0,1,2.53,0,2.22,2.22,0,0,1,5.06,2.53V98.16H2.67v-48H2.39v48H0ZM2.67,48.19V2.12H2.39V48.19Z"/><path d="M13,.14V95.77a2.22,2.22,0,0,1-2.53,2.53,2.22,2.22,0,0,1-2.53-2.53V2.12H7.66v96H5.26V2.53A2.22,2.22,0,0,1,7.79,0a2.22,2.22,0,0,1,2.53,2.53V96.18h.28V.14Z"/><path d="M15.72.14a2.22,2.22,0,0,1,2.53,2.53v93a2.22,2.22,0,0,1-2.53,2.53H13.19V.14Zm.14,2h-.27V96.18h.27Z"/><path d="M23.52,46.62c0,1.3-.55,2.05-1.58,2.26V49c1,0,1.58.69,1.58,2.12v47h-2.4V49.83h-.27V98.16H18.46V.14h2.8a2,2,0,0,1,2.26,2.25Zm-2.4-44.5h-.27v45.8h.27Z"/><path d="M26,2.12V48.19h.54v2H26v46h.54v2h-2.8V.14h2.8v2Z"/><path d="M29.46,96V51.27c0-.27-.41-.82-1.3-1.71a3.67,3.67,0,0,1-1.36-2.67V2.53A2.22,2.22,0,0,1,29.33,0a2.22,2.22,0,0,1,2.53,2.53V47.24h-2.4V2.12h-.27V46.89c0,.35.48,1,1.37,1.78a4,4,0,0,1,1.3,2.87V95.63a2.22,2.22,0,0,1-2.53,2.53,2.22,2.22,0,0,1-2.53-2.53V51h2.39V96Z"/></svg>