<svg preserveAspectRatio="none" xmlns="http://www.w3.org/2000/svg" viewBox="0 0 23.58 98.16"><title>arvid</title><path d="M0,2.53A2.22,2.22,0,0,1,2.53,0,2.22,2.22,0,0,1,5.06,2.53V98.16H2.67v-48H2.39v48H0ZM2.67,48.19V2.12H2.39V48.19Z"/><path d="M10.32,46.62c0,1.3-.54,2.05-1.57,2.26V49c1,0,1.57.69,1.57,2.12v47H7.93V49.83H7.66V98.16H5.26V.14H8.07a2,2,0,0,1,2.25,2.25ZM7.93,2.12H7.66v45.8h.27Z"/><path d="M15.86.14v98H10.53V.14h2.53v96h.54V.14Z"/><path d="M16.06.14h2.26v98H16.06Z"/><path d="M21.05.14a2.22,2.22,0,0,1,2.53,2.53v93a2.22,2.22,0,0,1-2.53,2.53H18.53V.14Zm.14,2h-.27V96.18h.27Z"/></svg>