<svg preserveAspectRatio="none" xmlns="http://www.w3.org/2000/svg" viewBox="0 0 28.64 98.3"><title>danni</title><path d="M2.53.14A2.22,2.22,0,0,1,5.06,2.67v93a2.22,2.22,0,0,1-2.53,2.53H0V.14Zm.14,2H2.39V96.18h.28Z"/><path d="M5.26,2.53A2.22,2.22,0,0,1,7.79,0a2.22,2.22,0,0,1,2.53,2.53V98.16H7.93v-48H7.66v48H5.26ZM7.93,48.19V2.12H7.66V48.19Z"/><path d="M18.25.14V95.77a2.22,2.22,0,0,1-2.53,2.53,2.22,2.22,0,0,1-2.53-2.53V2.12h-.27v96H10.53V2.53A2.22,2.22,0,0,1,13.06,0a2.22,2.22,0,0,1,2.53,2.53V96.18h.27V.14Z"/><path d="M26.18.14V95.77a2.22,2.22,0,0,1-2.53,2.53,2.22,2.22,0,0,1-2.53-2.53V2.12h-.27v96H18.46V2.53A2.22,2.22,0,0,1,21,0a2.22,2.22,0,0,1,2.53,2.53V96.18h.27V.14Z"/><path d="M26.39.14h2.25v98H26.39Z"/></svg>