<svg preserveAspectRatio="none" xmlns="http://www.w3.org/2000/svg" viewBox="0 0 23.58 98.16"><title>david</title><path d="M2.53.14A2.22,2.22,0,0,1,5.06,2.67v93a2.22,2.22,0,0,1-2.53,2.53H0V.14Zm.14,2H2.39V96.18h.28Z"/><path d="M5.26,2.53A2.22,2.22,0,0,1,7.79,0a2.22,2.22,0,0,1,2.53,2.53V98.16H7.93v-48H7.66v48H5.26ZM7.93,48.19V2.12H7.66V48.19Z"/><path d="M15.86.14v98H10.53V.14h2.53v96h.54V.14Z"/><path d="M16.06.14h2.26v98H16.06Z"/><path d="M21.05.14a2.22,2.22,0,0,1,2.53,2.53v93a2.22,2.22,0,0,1-2.53,2.53H18.53V.14Zm.14,2h-.27V96.18h.27Z"/></svg>