<svg preserveAspectRatio="none" xmlns="http://www.w3.org/2000/svg" viewBox="0 0 26.11 98.3"><title>jacob</title><path d="M2.39,50.45V96.18h.28V.14H5.06V95.91c0,1.57-.82,2.39-2.53,2.39S0,97.48,0,95.91V50.45Z"/><path d="M5.26,2.53A2.22,2.22,0,0,1,7.79,0a2.22,2.22,0,0,1,2.53,2.53V98.16H7.93v-48H7.66v48H5.26ZM7.93,48.19V2.12H7.66V48.19Z"/><path d="M13.19,48.88V2.12h-.27V96.18h.27v-47h2.4V95.91c0,1.57-.82,2.39-2.53,2.39s-2.53-.82-2.53-2.39V2.39C10.53.82,11.35,0,13.06,0s2.53.82,2.53,2.39V48.88Z"/><path d="M15.79,2.39C15.79.82,16.61,0,18.32,0s2.53.82,2.53,2.39V95.91c0,1.57-.82,2.39-2.53,2.39s-2.53-.82-2.53-2.39Zm2.67-.27h-.28V96.18h.28Z"/><path d="M26.11,46.62A2.17,2.17,0,0,1,24.54,49c1,0,1.57.69,1.57,2.12V95.91a2,2,0,0,1-2.25,2.25H21.05V.14h2.81q2.25.3,2.25,2.25ZM23.72,2.12h-.27v45.8h.27Zm-.27,94.06h.27V49.83h-.27Z"/></svg>