<svg preserveAspectRatio="none" xmlns="http://www.w3.org/2000/svg" viewBox="0 0 28.78 98.3"><title>jonas</title><path d="M2.39,50.45V96.18h.28V.14H5.06V95.91c0,1.57-.82,2.39-2.53,2.39S0,97.48,0,95.91V50.45Z"/><path d="M5.26,2.39C5.26.82,6.08,0,7.79,0s2.53.82,2.53,2.39V95.91c0,1.57-.82,2.39-2.53,2.39s-2.53-.82-2.53-2.39Zm2.67-.27H7.66V96.18h.27Z"/><path d="M18.25.14V95.77a2.22,2.22,0,0,1-2.53,2.53,2.22,2.22,0,0,1-2.53-2.53V2.12h-.27v96H10.53V2.53A2.22,2.22,0,0,1,13.06,0a2.22,2.22,0,0,1,2.53,2.53V96.18h.27V.14Z"/><path d="M18.46,2.53A2.22,2.22,0,0,1,21,0a2.22,2.22,0,0,1,2.53,2.53V98.16h-2.4v-48h-.27v48H18.46Zm2.66,45.66V2.12h-.27V48.19Z"/><path d="M26.39,96V51.27c0-.27-.41-.82-1.3-1.71a3.65,3.65,0,0,1-1.37-2.67V2.53A2.22,2.22,0,0,1,26.25,0a2.22,2.22,0,0,1,2.53,2.53V47.24H26.39V2.12h-.28V46.89c0,.35.48,1,1.37,1.78a4,4,0,0,1,1.3,2.87V95.63a2.22,2.22,0,0,1-2.53,2.53,2.22,2.22,0,0,1-2.53-2.53V51h2.39V96Z"/></svg>