<svg preserveAspectRatio="none" xmlns="http://www.w3.org/2000/svg" viewBox="0 0 29.6 98.3"><title>katrin</title><path d="M5.06,46.62c0,1.3-.55,2.05-1.57,2.26V49c1,0,1.57.69,1.57,2.12v47H2.67V49.83H2.39V98.16H0V.14H2.39V47.92h.28V.14H5.06Z"/><path d="M5.26,2.53A2.22,2.22,0,0,1,7.79,0a2.22,2.22,0,0,1,2.53,2.53V98.16H7.93v-48H7.66v48H5.26ZM7.93,48.19V2.12H7.66V48.19Z"/><path d="M13.88.14v2h-.55v96H11.07v-96h-.54v-2Z"/><path d="M19.21,46.62c0,1.3-.55,2.05-1.57,2.26V49c1,0,1.57.69,1.57,2.12v47H16.82V49.83h-.28V98.16H14.15V.14H17a2,2,0,0,1,2.26,2.25ZM16.82,2.12h-.28v45.8h.28Z"/><path d="M19.41.14h2.26v98H19.41Z"/><path d="M29.6.14V95.77a2.22,2.22,0,0,1-2.53,2.53,2.22,2.22,0,0,1-2.53-2.53V2.12h-.27v96H21.88V2.53A2.21,2.21,0,0,1,24.4,0a2.22,2.22,0,0,1,2.53,2.53V96.18h.28V.14Z"/></svg>