<svg preserveAspectRatio="none" xmlns="http://www.w3.org/2000/svg" viewBox="0 0 39.17 98.3"><title>mariana</title><path d="M7.72,98.16H5.33v-96H5.06v96H2.67v-96H2.39v96H0V1.57C0,.55.62,0,1.78,0s1.84.41,2,1.3H3.9C4,.41,4.65,0,5.88,0S7.72.55,7.72,1.57Z"/><path d="M7.93,2.53A2.22,2.22,0,0,1,10.46,0,2.22,2.22,0,0,1,13,2.53V98.16H10.6v-48h-.28v48H7.93ZM10.6,48.19V2.12h-.28V48.19Z"/><path d="M18.25,46.62c0,1.3-.54,2.05-1.57,2.26V49c1,0,1.57.69,1.57,2.12v47H15.86V49.83h-.27V98.16h-2.4V.14H16a2,2,0,0,1,2.25,2.25ZM15.86,2.12h-.27v45.8h.27Z"/><path d="M18.46.14h2.25v98H18.46Z"/><path d="M20.92,2.53A2.22,2.22,0,0,1,23.45,0,2.22,2.22,0,0,1,26,2.53V98.16h-2.4v-48h-.27v48H20.92Zm2.66,45.66V2.12h-.27V48.19Z"/><path d="M33.91.14V95.77a2.22,2.22,0,0,1-2.53,2.53,2.22,2.22,0,0,1-2.53-2.53V2.12h-.28v96H26.18V2.53A2.22,2.22,0,0,1,28.71,0a2.22,2.22,0,0,1,2.53,2.53V96.18h.27V.14Z"/><path d="M34.11,2.53A2.22,2.22,0,0,1,36.64,0a2.22,2.22,0,0,1,2.53,2.53V98.16H36.78v-48H36.5v48H34.11Zm2.67,45.66V2.12H36.5V48.19Z"/></svg>