<svg preserveAspectRatio="none" xmlns="http://www.w3.org/2000/svg" viewBox="0 0 34.04 98.3"><title>possan</title><path d="M0,.14H2.53A2.22,2.22,0,0,1,5.06,2.67v79c0,1.57-.82,2.39-2.53,2.39H2.39V98.16H0Zm2.67,2H2.39V82.24h.28Z"/><path d="M5.26,2.39C5.26.82,6.08,0,7.79,0s2.53.82,2.53,2.39V95.91c0,1.57-.82,2.39-2.53,2.39s-2.53-.82-2.53-2.39Zm2.67-.27H7.66V96.18h.27Z"/><path d="M13.19,96V51.27c0-.27-.41-.82-1.3-1.71a3.67,3.67,0,0,1-1.36-2.67V2.53A2.22,2.22,0,0,1,13.06,0a2.22,2.22,0,0,1,2.53,2.53V47.24h-2.4V2.12h-.27V46.89c0,.35.48,1,1.37,1.78a4,4,0,0,1,1.3,2.87V95.63a2.22,2.22,0,0,1-2.53,2.53,2.22,2.22,0,0,1-2.53-2.53V51h2.39V96Z"/><path d="M18.46,96V51.27c0-.27-.41-.82-1.3-1.71a3.65,3.65,0,0,1-1.37-2.67V2.53A2.22,2.22,0,0,1,18.32,0a2.22,2.22,0,0,1,2.53,2.53V47.24H18.46V2.12h-.28V46.89c0,.35.48,1,1.37,1.78a4,4,0,0,1,1.3,2.87V95.63a2.22,2.22,0,0,1-2.53,2.53,2.22,2.22,0,0,1-2.53-2.53V51h2.39V96Z"/><path d="M21.05,2.53A2.22,2.22,0,0,1,23.58,0a2.22,2.22,0,0,1,2.53,2.53V98.16H23.72v-48h-.27v48h-2.4Zm2.67,45.66V2.12h-.27V48.19Z"/><path d="M34,.14V95.77a2.22,2.22,0,0,1-2.53,2.53A2.22,2.22,0,0,1,29,95.77V2.12h-.27v96H26.32V2.53A2.22,2.22,0,0,1,28.85,0a2.22,2.22,0,0,1,2.53,2.53V96.18h.27V.14Z"/></svg>