<svg preserveAspectRatio="none" xmlns="http://www.w3.org/2000/svg" viewBox="0 0 18.59 98.3"><title>rose</title><path d="M5.06,46.62c0,1.3-.55,2.05-1.57,2.26V49c1,0,1.57.69,1.57,2.12v47H2.67V49.83H2.39V98.16H0V.14H2.8A2,2,0,0,1,5.06,2.39ZM2.67,2.12H2.39v45.8h.28Z"/><path d="M5.26,2.39C5.26.82,6.08,0,7.79,0s2.53.82,2.53,2.39V95.91c0,1.57-.82,2.39-2.53,2.39s-2.53-.82-2.53-2.39Zm2.67-.27H7.66V96.18h.27Z"/><path d="M13.19,96V51.27c0-.27-.41-.82-1.3-1.71a3.67,3.67,0,0,1-1.36-2.67V2.53A2.22,2.22,0,0,1,13.06,0a2.22,2.22,0,0,1,2.53,2.53V47.24h-2.4V2.12h-.27V46.89c0,.35.48,1,1.37,1.78a4,4,0,0,1,1.3,2.87V95.63a2.22,2.22,0,0,1-2.53,2.53,2.22,2.22,0,0,1-2.53-2.53V51h2.39V96Z"/><path d="M18.05,2.12V48.19h.54v2h-.54v46h.54v2h-2.8V.14h2.8v2Z"/></svg>