<svg xmlns="http://www.w3.org/2000/svg" viewBox="0 0 403.46 909.28"><title>Asset 1</title><g id="Layer_2" data-name="Layer 2"><g id="Layer_1-2" data-name="Layer 1"><path d="M22.12,888.41h2.54V474.23q0-3.76-12-15.79Q0,447,0,433.77V23.39Q0,0,23.39,0T46.8,23.39V436.94H24.66V19.59H22.12V433.77q0,5.06,12.66,16.45,12,12,12,26.55V884.62q0,23.4-23.41,23.4T0,884.62V471.72H22.12Z"/><path d="M77.15,1.27H98V908H48.69V1.27H72.08v888.4h5.07Z"/><path d="M99.92,908V23.39Q99.92,0,123.31,0t23.4,23.39V908H124.57V464.12H122V908ZM122,445.78h2.53V19.59H122Z"/><path d="M195.41,22.12V431.25q0,17.72-14.55,20.86v1.27q14.53,0,14.55,19.59V908H173.27V461h-2.54V908H148.61V1.27h25.92Q195.4,1.27,195.41,22.12ZM173.27,443.25V19.59h-2.54V443.25Z"/><path d="M197.3,1.27h31V19.59h-5.07V908H202.37V19.59H197.3Z"/><path d="M251.68,1.27v888.4h5.06V908H230.82V1.27Z"/><path d="M259.28,466.66H281.4v423h2.53V1.27h22.14V887.16q0,22.13-23.4,22.12t-23.39-22.12Z"/><path d="M332.62,1.27h22.14V885.89q0,23.39-23.4,23.39T308,885.89V1.27h22.12v888.4h2.53Z"/><path d="M378.79,888.41h2.53V474.23q0-3.76-12-15.79-12.66-11.4-12.64-24.67V23.39Q356.66,0,380.05,0t23.41,23.39V436.94H381.32V19.59h-2.53V433.77q0,5.06,12.65,16.45,12,12,12,26.55V884.62q0,23.4-23.41,23.4t-23.39-23.4V471.72h22.13Z"/></g></g></svg>