<?xml version="1.0" encoding="utf-8"?>
<!-- Generator: Adobe Illustrator 22.1.0, SVG Export Plug-In . SVG Version: 6.00 Build 0)  -->
<svg version="1.1" id="Layer_1" xmlns="http://www.w3.org/2000/svg" xmlns:xlink="http://www.w3.org/1999/xlink" x="0px" y="0px"
	 viewBox="0 0 512 512" style="enable-background:new 0 0 512 512;" xml:space="preserve">
<title>svartljus</title>
<circle cx="256" cy="256" r="106.5"/>
<rect x="240" y="8.1" width="31.1" height="123.9"/>
<rect x="240" y="377.7" width="31.1" height="123.9"/>
<rect x="370.7" y="62.3" transform="matrix(0.7071 0.7071 -0.7071 0.7071 200.9557 -236.7071)" width="31.1" height="123.9"/>
<rect x="109.4" y="323.6" transform="matrix(0.7071 0.7071 -0.7071 0.7071 309.1885 24.5901)" width="31.1" height="123.9"/>
<rect x="370.7" y="323.6" transform="matrix(-0.7071 0.7071 -0.7071 -0.7071 931.902 385.0307)" width="31.1" height="123.9"/>
<rect x="109.4" y="62.3" transform="matrix(-0.7071 0.7071 -0.7071 -0.7071 301.0749 123.7335)" width="31.1" height="123.9"/>
<rect x="424.8" y="192.9" transform="matrix(5.843608e-14 1 -1 5.843608e-14 695.1949 -185.455)" width="31.1" height="123.9"/>
<rect x="55.3" y="192.9" transform="matrix(-2.949359e-14 1 -1 -2.949359e-14 325.665 184.075)" width="31.1" height="123.9"/>
</svg>
