<svg id="Layer_1" data-name="Layer 1" xmlns="http://www.w3.org/2000/svg" viewBox="0 0 512.02 500.06"><title>svartljus</title><path d="M0,262.86V231.31l121.14-.46-.46,32.46ZM81.37,439.77l-20.57-21,85.49-85.49,21,21.48ZM70.37,75l23.8-21.91L180.11,139l-21.94,22.82Zm187.46,65.37q46.16,0,76.79,32t30.63,80.45q0,41.61-32.92,72.69t-77.25,31.09q-43.89,0-75-31.78t-31.08-77q0-45.25,31.31-76.35T257.83,140.34Zm-16,358.86.45-121.14h30.63v122ZM273.36,0l.46,122.06-31.54.46L242.74.46ZM429.7,435.65l-85.93-86.4,22.4-22.86,85.94,86.4Zm22-365.25-85.53,85.48-20.61-21,85-85.48Zm59.86,192.91L389,263.77l.46-32,122.51.46Z"/></svg>