<svg preserveAspectRatio="none" xmlns="http://www.w3.org/2000/svg" viewBox="0 0 43.61 98.3"><title>svartljus</title><path d="M2.67,96V51.27c0-.27-.41-.82-1.3-1.71A3.65,3.65,0,0,1,0,46.89V2.53A2.22,2.22,0,0,1,2.53,0,2.22,2.22,0,0,1,5.06,2.53V47.24H2.67V2.12H2.39V46.89c0,.35.48,1,1.37,1.78a4,4,0,0,1,1.3,2.87V95.63a2.22,2.22,0,0,1-2.53,2.53A2.22,2.22,0,0,1,0,95.63V51H2.39V96Z"/><path d="M10.6.14v98H5.26V.14H7.79v96h.55V.14Z"/><path d="M10.8,2.53A2.22,2.22,0,0,1,13.33,0a2.22,2.22,0,0,1,2.53,2.53V98.16H13.47v-48h-.28v48H10.8Zm2.67,45.66V2.12h-.28V48.19Z"/><path d="M21.12,46.62c0,1.3-.54,2.05-1.57,2.26V49c1,0,1.57.69,1.57,2.12v47H18.73V49.83h-.27V98.16h-2.4V.14h2.81a2,2,0,0,1,2.25,2.25ZM18.73,2.12h-.27v45.8h.27Z"/><path d="M24.68.14v2h-.55v96H21.88v-96h-.55v-2Z"/><path d="M27.21,96.18h.54v2H25V.14h2.26Z"/><path d="M30.42,50.45V96.18h.27V.14h2.4V95.91c0,1.57-.82,2.39-2.53,2.39S28,97.48,28,95.91V50.45Z"/><path d="M38.35.14V95.77a2.22,2.22,0,0,1-2.53,2.53,2.22,2.22,0,0,1-2.53-2.53V.14h2.39v96H36V.14Z"/><path d="M41.22,96V51.27c0-.27-.41-.82-1.3-1.71a3.65,3.65,0,0,1-1.37-2.67V2.53A2.22,2.22,0,0,1,41.08,0a2.22,2.22,0,0,1,2.53,2.53V47.24H41.22V2.12H41V46.89c0,.35.48,1,1.36,1.78a4,4,0,0,1,1.3,2.87V95.63a2.22,2.22,0,0,1-2.53,2.53,2.22,2.22,0,0,1-2.53-2.53V51H41V96Z"/></svg>